<svg width="583" height="203" viewBox="0 0 583 203" fill="none" xmlns="http://www.w3.org/2000/svg">
<path d="M306.656 21.3065L248.995 24.1511L79.8576 32.5311L14.0477 35.7601C5.82145 36.1445 -0.405889 43.4482 0.593561 51.6744L16.5079 189.752C17.4304 197.44 24.1959 202.976 31.884 202.361L94.9263 196.902L249.072 183.602L309.347 178.374C316.727 177.759 322.416 171.532 322.416 164.074L321.571 35.5295C321.571 27.3801 314.728 20.9221 306.656 21.3065Z" fill="#85CD2E"/>
<path d="M320.418 21.2296L262.68 21.0759L93.3887 20.6915L27.5019 20.5377C19.2757 20.5377 12.7408 27.457 13.2021 35.6832L22.1203 174.453C22.5815 182.141 29.1164 188.061 36.8814 187.83L100.154 185.601L254.761 180.219L315.19 178.066C322.647 177.836 328.644 171.916 328.951 164.459L334.717 36.0676C335.025 27.9951 328.567 21.2296 320.418 21.2296Z" fill="#F3C734"/>
<path d="M309.731 0.0105403L252.071 2.47072L251.225 161.845L311.499 157.001C318.88 156.386 324.646 150.236 324.646 142.778V14.3104C324.646 6.161 317.881 -0.296983 309.731 0.0105403Z" fill="#FF4B58"/>
<path d="M82.9329 9.7744L97.0021 174.222L251.225 161.921L252.071 2.54761L82.9329 9.7744Z" fill="#46194D"/>
<path d="M17.0461 12.619C8.81983 13.0034 2.59247 20.2302 3.43816 28.4564L18.5837 166.688C19.4294 174.376 26.1949 179.988 33.883 179.373L97.0021 174.299L82.856 9.85128L17.0461 12.619Z" fill="#06D2FF"/>
<path d="M64.8354 64.4017C67.0698 54.939 61.2101 45.4565 51.7473 43.2221C42.2845 40.9877 32.8021 46.8474 30.5676 56.3102C28.3332 65.7729 34.193 75.2554 43.6557 77.4898C53.1185 79.7242 62.601 73.8645 64.8354 64.4017Z" fill="#46194D"/>
<path d="M305.285 111.45C306.843 101.852 300.325 92.8088 290.727 91.2511C281.129 89.6934 272.086 96.2114 270.528 105.809C268.971 115.407 275.488 124.451 285.086 126.008C294.684 127.566 303.728 121.048 305.285 111.45Z" fill="#46194D"/>
<path d="M294.033 24.1644L282.35 24.4435L282.67 37.8168L294.352 37.5376L294.033 24.1644Z" fill="#46194D"/>
<path d="M277.906 42.064L265.225 42.3671L265.504 54.0495L278.186 53.7464L277.906 42.064Z" fill="#46194D"/>
<path d="M294.801 57.6078L283.119 57.8869L283.438 71.2602L295.121 70.981L294.801 57.6078Z" fill="#46194D"/>
<path d="M312.042 41.2792L297.977 41.6154L298.256 53.2977L312.321 52.9616L312.042 41.2792Z" fill="#46194D"/>
<path d="M61.2914 101.717L49.6102 102.052L49.9944 115.424L61.6756 115.088L61.2914 101.717Z" fill="#46194D"/>
<path d="M45.2472 119.768L32.567 120.132L32.9025 131.813L45.5828 131.449L45.2472 119.768Z" fill="#46194D"/>
<path d="M62.2925 135.236L50.6113 135.572L50.9954 148.943L62.6767 148.608L62.2925 135.236Z" fill="#46194D"/>
<path d="M79.3835 118.826L65.3199 119.23L65.6556 130.911L79.7191 130.507L79.3835 118.826Z" fill="#46194D"/>
<path d="M467.799 101.329H473.473L471.627 111.822V111.993C471.627 112.381 471.764 112.722 472.037 113.019C472.311 113.315 472.641 113.463 473.028 113.463H476.173C476.674 113.463 477.13 113.303 477.54 112.984C477.973 112.643 478.235 112.232 478.326 111.754L479.557 104.85C479.602 104.645 479.625 104.428 479.625 104.2C479.625 103.289 479.215 102.104 478.395 100.646C478.053 100.03 477.084 98.2301 475.489 95.2451C473.712 91.8955 472.687 89.9587 472.413 89.4346C471.547 87.7256 471.114 86.0508 471.114 84.4102C471.114 84.319 471.114 84.2165 471.114 84.1025C471.114 83.7152 471.148 83.3164 471.217 82.9062L472.687 74.4297C472.914 73.1536 473.552 72.0941 474.601 71.251C475.603 70.4079 476.754 69.9863 478.053 69.9863H486.256C487.441 69.9863 488.466 70.4193 489.332 71.2852C490.221 72.151 490.665 73.222 490.665 74.498C490.665 74.7943 490.642 75.0335 490.597 75.2158L488.443 87.2471H482.701L484.513 77.1299C484.558 77.0615 484.581 76.9704 484.581 76.8564C484.581 76.5146 484.433 76.1956 484.137 75.8994C483.84 75.6488 483.499 75.5234 483.111 75.5234H479.967C479.465 75.5234 479.021 75.6829 478.634 76.002C478.246 76.2982 478.007 76.6742 477.916 77.1299L476.925 82.5645C476.856 82.9746 476.822 83.3962 476.822 83.8291C476.822 85.4242 477.346 87.0762 478.395 88.7852C482.291 95.1426 484.33 98.7428 484.513 99.5859C485.105 100.68 485.401 101.876 485.401 103.175C485.379 103.767 485.31 104.394 485.196 105.055L483.453 114.522C483.225 115.799 482.599 116.869 481.573 117.735C480.548 118.578 479.374 119 478.053 119H469.884C468.676 119 467.662 118.567 466.842 117.701C466.044 116.835 465.646 115.776 465.646 114.522V113.736L467.799 101.329ZM489.742 119L497.672 75.5234H493.468L494.459 69.9863H508.712L507.652 75.5234H503.585L495.724 119H489.742ZM502.833 119L511.617 69.9863H524.776C525.961 69.9863 526.987 70.4193 527.853 71.2852C528.718 72.1283 529.174 73.165 529.22 74.3955C529.197 74.5094 529.151 74.7829 529.083 75.2158L526.349 90.665C525.961 92.807 524.697 94.1742 522.555 94.7666C523.352 95.0628 523.956 95.5869 524.366 96.3389C524.685 96.9313 524.845 97.5921 524.845 98.3213C524.845 98.4808 524.833 98.6517 524.811 98.834C524.811 99.1758 524.799 99.4378 524.776 99.6201L521.222 119H515.206L518.795 98.9365V98.7656C518.795 98.3783 518.658 98.0479 518.385 97.7744C518.111 97.501 517.781 97.3643 517.394 97.3643H512.643L508.814 119H502.833ZM513.702 91.5195H518.453C518.954 91.5195 519.399 91.3486 519.786 91.0068C520.151 90.6878 520.379 90.2891 520.47 89.8105L522.794 77.1299V76.9248C522.794 76.5146 522.657 76.1729 522.384 75.8994C522.088 75.6488 521.734 75.5234 521.324 75.5234H516.607L513.702 91.5195ZM534.176 69.9863H547.472L546.515 75.4551H539.132L536.363 91.0068H543.712L542.687 96.4756H535.372L532.33 113.531H539.576L538.585 119H525.289L534.176 69.9863ZM551.607 69.9863H564.903L563.946 75.4551H556.563L553.795 91.0068H561.144L560.118 96.4756H552.804L549.762 113.531H557.008L556.017 119H542.721L551.607 69.9863ZM563.229 119L571.158 75.5234H566.954L567.945 69.9863H582.198L581.139 75.5234H577.071L569.21 119H563.229Z" fill="#06D2FF"/>
<path d="M367.646 113.668L374.687 74.4297C374.914 73.1536 375.541 72.0941 376.566 71.251C377.592 70.4079 378.743 69.9863 380.019 69.9863H388.324C389.509 69.9863 390.523 70.4193 391.366 71.2852C392.232 72.151 392.665 73.2106 392.665 74.4639C392.665 74.7829 392.642 75.0335 392.597 75.2158L390.409 87.418H384.735L386.581 77.1299V76.9248C386.581 76.5146 386.444 76.1729 386.171 75.8994C385.897 75.6488 385.556 75.5234 385.146 75.5234H381.967C381.488 75.5234 381.044 75.6829 380.634 76.002C380.246 76.2982 380.007 76.6742 379.916 77.1299L373.661 111.822V111.993C373.661 112.381 373.798 112.722 374.071 113.019C374.345 113.315 374.687 113.463 375.097 113.463H378.241C379.426 113.463 380.121 112.893 380.326 111.754L383.129 96.7832H379.882L380.873 91.3145H389.794L385.556 114.522C385.328 115.799 384.69 116.869 383.642 117.735C382.616 118.578 381.454 119 380.155 119H371.986C370.779 119 369.753 118.567 368.91 117.701C368.067 116.812 367.646 115.753 367.646 114.522V113.668ZM387.538 119L403.705 69.9863H409.584L408.046 119H402.475L402.885 110.934H396.186L393.793 119H387.538ZM403.158 105.396L404.252 83.6924L397.826 105.396H403.158ZM419.872 69.9863H426.913L426.537 105.294L438.363 69.9863H446.498L437.611 119H431.698L437.133 88.4092L426.811 119H421.82L422.196 88.0332L416.864 119H410.951L419.872 69.9863ZM450.6 69.9863H463.896L462.938 75.4551H455.556L452.787 91.0068H460.136L459.11 96.4756H451.796L448.754 113.531H456L455.009 119H441.713L450.6 69.9863Z" fill="#F3C734"/>
</svg>
