<svg xmlns="http://www.w3.org/2000/svg" xmlns:xlink="http://www.w3.org/1999/xlink" version="1.1" x="0px" y="0px" viewBox="0 0 24 30" style="enable-background:new 0 0 24 24;" xml:space="preserve"><g><g><path d="M14.5,17H14v-0.5c0-0.276-0.224-0.5-0.5-0.5S13,16.224,13,16.5V17h-0.5c-0.276,0-0.5,0.224-0.5,0.5s0.224,0.5,0.5,0.5H13    v0.5c0,0.276,0.224,0.5,0.5,0.5s0.5-0.224,0.5-0.5V18h0.5c0.276,0,0.5-0.224,0.5-0.5S14.776,17,14.5,17z M19.5,17    c0.276,0,0.5-0.224,0.5-0.5S19.776,16,19.5,16S19,16.224,19,16.5S19.224,17,19.5,17z M8.001,23l-6.99,0.001    c0.097-2.315,0.895-3.586,2.49-3.985l4.121-1.03c0.179-0.045,0.319-0.185,0.364-0.364l0.49-1.961    c0.044-0.176-0.011-0.362-0.144-0.486c-1.01-0.947-1.679-2.336-1.789-3.714c-0.02-0.26-0.237-0.46-0.498-0.46H5.883    c-0.252,0-0.465-0.188-0.496-0.438l-0.25-2C5.119,8.419,5.162,8.279,5.259,8.169C5.355,8.06,5.487,8,5.633,8h0.104    c0.144,0,0.28-0.061,0.375-0.169c0.095-0.107,0.139-0.251,0.121-0.393C6.169,6.925,6.001,5.49,6.001,5c0-1.56,0.307-2.963,4.005-3    c0.102-0.001,0.202-0.033,0.286-0.093C11.409,1.108,12.608,1,13.632,1c1.404,0,2.397,0.429,2.951,1.274    c0.664,1.015,0.377,1.54,0.064,1.873l-0.5,0.5c-0.088,0.088-0.14,0.205-0.146,0.329l-0.122,2.502    c-0.007,0.136,0.042,0.268,0.135,0.367c0.093,0.098,0.222,0.156,0.358,0.157c0.145,0.002,0.277,0.063,0.373,0.172    c0.094,0.108,0.136,0.246,0.118,0.388l-0.25,2C16.582,10.813,16.369,11,16.068,11c-0.261,0-0.477,0.199-0.498,0.459    c-0.005,0.058-0.012,0.189-0.019,0.34c-0.012,0.235-0.023,0.528-0.038,0.623c-0.041,0.272,0.146,0.528,0.418,0.57    c0.278,0.041,0.527-0.143,0.57-0.415c0.015-0.097,0.031-0.383,0.044-0.641c0.557-0.167,0.985-0.649,1.06-1.251l0.25-2    c0.053-0.422-0.077-0.848-0.357-1.169c-0.164-0.188-0.371-0.33-0.6-0.417l0.092-1.883l0.374-0.374    c0.564-0.6,1.031-1.627,0.054-3.117c-0.749-1.145-2.023-1.726-3.787-1.726c-0.695,0-2.298,0-3.791,1.002    C5.579,1.09,5,3.069,5,4.999c0,0.449,0.11,1.46,0.181,2.07C4.924,7.15,4.691,7.3,4.509,7.506C4.225,7.828,4.092,8.258,4.145,8.685    l0.25,2c0.081,0.653,0.577,1.165,1.202,1.287c0.208,1.374,0.873,2.724,1.839,3.722l-0.348,1.393l-3.83,0.958    C1.065,18.594,0,20.378,0,23.5c0,0.133,0.052,0.261,0.146,0.354S0.367,24,0.5,24h7.501c0.276,0,0.5-0.224,0.5-0.5    S8.277,23,8.001,23z M19.5,18c-0.276,0-0.5,0.224-0.5,0.5s0.224,0.5,0.5,0.5s0.5-0.224,0.5-0.5S19.776,18,19.5,18z M20.5,17    c-0.276,0-0.5,0.224-0.5,0.5s0.224,0.5,0.5,0.5s0.5-0.224,0.5-0.5S20.776,17,20.5,17z M18.5,17c-0.276,0-0.5,0.224-0.5,0.5    s0.224,0.5,0.5,0.5s0.5-0.224,0.5-0.5S18.776,17,18.5,17z M18.5,14h-4C10.304,14,9,18.766,9,20.5c0,2.322,0.673,3.5,2,3.5    c2.074,0,3.095-1.947,3.385-2.616C14.729,21.256,15.541,21,16.5,21s1.77,0.256,2.115,0.384C18.905,22.055,19.926,24,22,24    c1.327,0,2-1.178,2-3.5C24,18.766,22.696,14,18.5,14z M22,23c-1.738,0-2.52-2.145-2.528-2.167    c-0.046-0.127-0.141-0.232-0.264-0.288C19.159,20.523,17.998,20,16.5,20s-2.659,0.523-2.708,0.545    c-0.123,0.056-0.218,0.161-0.264,0.288C13.521,20.855,12.738,23,11,23c-0.247,0-1,0-1-2.5c0-0.855,0.83-5.5,4.5-5.5h4    c3.67,0,4.5,4.645,4.5,5.5C23,23,22.247,23,22,23z"/></g></g></svg>